<?xml version="1.0" encoding="UTF-8" standalone="no"?>
<!-- Created with Inkscape (http://www.inkscape.org/) -->

<svg
   width="80mm"
   height="10mm"
   viewBox="0 0 80.000003 9.9999999"
   version="1.1"
   id="svg8"
   inkscape:version="1.2.2 (b0a8486541, 2022-12-01)"
   sodipodi:docname="logo.svg"
   xmlns:inkscape="http://www.inkscape.org/namespaces/inkscape"
   xmlns:sodipodi="http://sodipodi.sourceforge.net/DTD/sodipodi-0.dtd"
   xmlns="http://www.w3.org/2000/svg"
   xmlns:svg="http://www.w3.org/2000/svg"
   xmlns:rdf="http://www.w3.org/1999/02/22-rdf-syntax-ns#"
   xmlns:cc="http://creativecommons.org/ns#"
   xmlns:dc="http://purl.org/dc/elements/1.1/">
  <defs
     id="defs2" />
  <sodipodi:namedview
     id="base"
     pagecolor="#000000"
     bordercolor="#666666"
     borderopacity="1.0"
     inkscape:pageopacity="0"
     inkscape:pageshadow="2"
     inkscape:zoom="3.959798"
     inkscape:cx="50.760165"
     inkscape:cy="-39.648487"
     inkscape:document-units="mm"
     inkscape:current-layer="g434"
     showgrid="false"
     inkscape:window-width="2560"
     inkscape:window-height="1367"
     inkscape:window-x="0"
     inkscape:window-y="0"
     inkscape:window-maximized="1"
     fit-margin-top="0"
     fit-margin-left="0"
     fit-margin-right="0"
     fit-margin-bottom="0"
     inkscape:showpageshadow="2"
     inkscape:pagecheckerboard="0"
     inkscape:deskcolor="#d1d1d1" />
  <metadata
     id="metadata5">
    <rdf:RDF>
      <cc:Work
         rdf:about="">
        <dc:format>image/svg+xml</dc:format>
        <dc:type
           rdf:resource="http://purl.org/dc/dcmitype/StillImage" />
      </cc:Work>
    </rdf:RDF>
  </metadata>
  <g
     inkscape:label="Layer 1"
     inkscape:groupmode="layer"
     id="layer1"
     transform="translate(-383.51786,287.1842)">
    <g
       id="g434"
       transform="translate(0,-0.3060067)">
      <g
         aria-label="BADGE.TEAM"
         transform="matrix(0.48130841,0,0,0.48130841,-284.91594,347.28812)"
         style="font-style:normal;font-variant:normal;font-weight:bold;font-stretch:normal;font-size:24px;line-height:1.25;font-family:'Permanent marker';-inkscape-font-specification:'Permanent marker Bold';letter-spacing:0px;word-spacing:0px;fill:#000000;fill-opacity:1;stroke:none"
         id="flowRoot1061-9">
        <g
           aria-label="Badge.team"
           transform="scale(1.0340318,0.96708824)"
           id="text405"
           style="font-size:27.2152px;fill:#ffffff;stroke-width:0.364489">
          <path
             d="m 1350.4288,-1354.8893 q -1.1162,-0.4519 -1.8604,-1.2758 -0.7176,-0.8239 -1.1694,-1.9401 0.2658,-0.7176 0.8505,-1.196 0.5847,-0.505 1.3023,-0.8505 0.7441,-0.3455 1.568,-0.5581 0.8239,-0.2126 1.5947,-0.3721 0.1594,0.053 0.1594,0 0,-0.053 0.1329,0.053 0.9568,-0.2924 2.2059,-0.5581 1.2492,-0.2924 2.6578,-0.2127 0.186,-0.1063 0.4518,-0.1063 0.2658,-0.026 0.5581,-0.026 0.2924,0 0.5581,0 0.2658,-0.027 0.4519,-0.1064 0.1594,0.1861 0.4783,0.2392 0.319,0.027 0.6645,0.2658 0.1063,0.027 0,-0.08 -0.1063,-0.1329 0.027,-0.1861 0.3455,0 0.6112,0.1595 0.2658,0.1595 0.4784,0.3721 0.2392,0.186 0.4253,0.3455 0.2126,0.1595 0.4518,0.1595 0.2392,0.2923 0.5581,0.5581 0.3455,0.2392 0.6379,0.505 0.3189,0.2657 0.5049,0.5847 0.2126,0.3189 0.2126,0.7175 -0.026,0.1595 0.1064,0.1861 0.1328,0.027 0.186,0.1594 0.027,0.9834 -0.3189,1.701 -0.319,0.7176 -0.8239,1.3289 -0.505,0.5847 -1.0897,1.1162 -0.5581,0.5316 -1.0365,1.1428 0.3189,0.3987 0.7176,0.7442 0.4252,0.3189 0.8505,0.6379 0.4252,0.3189 0.7973,0.691 0.3986,0.3455 0.6644,0.7973 0.08,0.1595 0.3455,0.2126 0.08,0.3189 0.2126,0.6644 0.1595,0.319 0.2924,0.6379 0.1329,0.2924 0.1594,0.5315 0.027,0.2392 -0.1328,0.3987 0.186,0.1063 0.2126,0.3455 0.027,0.2126 0,0.3455 -0.5847,0.7176 -0.7973,1.01 -0.2127,0.2923 -0.319,0.4252 -0.1063,0.1329 -0.2126,0.2392 -0.1063,0.1063 -0.4784,0.4252 -1.4086,0.8505 -2.9501,1.5415 -1.5149,0.6644 -3.1627,0.9036 -0.1329,0.1861 -0.3986,0.2924 -0.2392,0.1329 -0.5582,0.2126 -0.3189,0.08 -0.691,0.1329 -0.3455,0.053 -0.6378,0.1063 -0.1329,-0.053 -0.1595,-0.186 0,-0.1063 -0.1329,-0.1595 -0.027,0.3189 -0.2923,0.3189 -0.2392,0.027 -0.6113,-0.1063 -0.3721,-0.1329 -0.7707,-0.3721 -0.3987,-0.2392 -0.6911,-0.4518 -0.1328,0.2392 -0.3455,0.505 -0.186,0.2658 -0.3986,0.3721 -0.3721,-0.053 -0.5581,-0.08 -0.1595,-0.026 -0.319,0.1329 -0.2126,-0.1063 -0.3189,-0.2392 -0.1063,-0.1063 -0.2126,-0.2392 -0.1063,-0.1063 -0.2392,-0.186 -0.1329,-0.1063 -0.3987,-0.186 0.053,-0.1329 -0.08,-0.3987 -0.1329,-0.2924 -0.3721,-0.3455 0.1329,-0.2126 -0.1063,-0.5316 -0.2392,-0.3455 -0.3721,-0.7707 0.027,-0.186 0.027,-0.3721 0.027,-0.2126 0.053,-0.3721 0.053,-0.186 0.1329,-0.3189 0.08,-0.1329 0.2658,-0.186 -0.027,-0.3455 -0.2126,-0.6645 0.2392,-0.186 0.3189,-0.4518 0.08,-0.2923 0.1329,-0.5847 0.08,-0.2923 0.186,-0.5581 0.1064,-0.2924 0.3455,-0.4784 -0.053,-0.08 -0.1063,-0.1329 -0.053,-0.053 -0.053,-0.186 0.3986,-0.6645 0.5581,-1.1163 0.1595,-0.4784 0.2392,-0.9036 0.1063,-0.4518 0.2126,-0.9568 0.1063,-0.505 0.4253,-1.2757 -0.027,-0.4784 0.1063,-0.8505 0.1329,-0.3721 0.2657,-0.7176 0.1595,-0.372 0.2392,-0.7707 0.08,-0.3987 -0.027,-0.9302 -0.4519,0.053 -0.6645,0.3189 -0.186,0.2658 -0.2392,0.7176 -0.2392,0.2126 -0.6112,0.2126 -0.3721,-0.027 -0.6645,0.08 z m 11.6941,5.1294 q -1.01,-0.5581 -1.8605,-0.6645 -0.8239,-0.1063 -1.5946,0.027 -0.7442,0.1063 -1.4352,0.319 -0.691,0.2126 -1.382,0.3189 -0.3455,0.9036 -0.7176,1.9933 -0.3721,1.0897 -0.7176,2.1262 0.9568,-0.1329 1.7541,-0.3987 0.7973,-0.2658 1.5415,-0.5847 0.7442,-0.3455 1.4618,-0.6644 0.7176,-0.3455 1.4883,-0.6379 0.08,-0.3189 0.3455,-0.505 0.2658,-0.186 0.5315,-0.3455 0.2658,-0.186 0.4519,-0.3986 0.186,-0.2126 0.1329,-0.5847 z m -1.8605,-8.3187 q -1.6478,-0.053 -3.2424,0.2923 -1.5946,0.3455 -2.6843,1.01 0.5315,0.4518 1.0897,0.7973 0.5847,0.3455 0.877,0.9302 1.2757,-0.505 2.2325,-1.2757 0.9568,-0.7973 1.7275,-1.7541 z"
             id="path415" />
          <path
             d="m 1380.9662,-1344.285 q -0.1595,0.4518 -0.4784,0.9302 -0.2924,0.4518 -0.7176,0.8239 -0.3987,0.3455 -0.9036,0.5847 -0.505,0.2392 -1.0631,0.2658 -0.3455,-0.08 -0.4784,-0.186 -0.1063,-0.08 -0.2392,-0.1595 -0.08,-0.053 -0.1595,-0.08 -0.053,-0.053 -0.1063,-0.08 l -0.3189,-0.1329 0.1063,-0.3455 q 0.053,-0.2126 -0.027,-0.3189 -0.08,-0.1329 -0.3189,-0.3455 -0.08,-0.08 -0.1595,-0.1595 -0.08,-0.08 -0.1329,-0.1594 l -0.4518,-0.505 0.7176,-0.186 q 0.6645,-0.1861 0.8771,-0.4784 0.2392,-0.2924 0.186,-0.9834 -0.5315,-0.1063 -0.9036,-0.027 -0.3455,0.08 -0.7176,0.1861 -0.4784,0.1329 -0.9834,0.2392 -0.4784,0.08 -1.0631,0.08 -0.2126,0 -0.3986,0 -0.1861,-0.027 -0.3987,-0.053 l -0.2658,-0.053 q -0.053,-0.2924 -0.1063,-0.3189 -0.053,-0.053 -0.1063,-0.1064 -0.1329,-0.1328 -0.2923,-0.3455 -0.1329,-0.2392 -0.053,-0.5847 -0.1329,-0.2392 -0.1594,-0.4783 -0.1595,0.3189 -0.2392,0.6644 l -0.1063,0.2658 -0.2658,0.053 q -0.053,0.027 -0.08,0.1329 -0.027,0.08 -0.027,0.1329 l -0.1329,0.4518 q -0.053,0.053 -0.1063,0.1063 -0.053,0.027 -0.1063,0.08 -0.053,0.2392 -0.1329,0.4784 -0.08,0.2392 -0.1595,0.4518 -0.1329,0.3456 -0.2392,0.6911 -0.08,0.3189 -0.053,0.6378 l -0.1063,0.2924 q -0.1329,0.1594 -0.2924,0.2657 -0.1595,0.08 -0.3189,0.1595 -0.053,0.053 -0.1595,0.1063 -0.08,0.027 -0.1329,0.053 l -0.08,0.2923 -0.3189,0.053 q -0.2924,0.053 -0.4253,0.08 -0.1063,0.027 -0.2657,0.027 l -0.2658,-0.027 q -0.2924,-0.2392 -0.4518,-0.3721 -0.1595,-0.1594 -0.3721,-0.2923 -0.2392,-0.319 -0.2658,-0.4784 -0.027,-0.1595 -0.053,-0.2924 -0.053,-0.1594 -0.053,-0.2657 -0.027,-0.1064 -0.08,-0.1595 l -0.3455,-0.3189 0.2923,-0.2392 0.027,-0.4518 q 0.5315,-1.3555 1.1162,-2.6046 0.6113,-1.2492 1.2492,-2.5515 0.2126,-0.4252 0.3986,-0.8504 0.2127,-0.4253 0.4253,-0.8505 -0.027,-0.08 -0.027,-0.186 0,-0.1064 0.053,-0.2392 0.2924,-0.4519 0.4784,-0.7974 0.1861,-0.372 0.3721,-0.7441 0.2126,-0.4518 0.4253,-0.8771 0.2392,-0.4252 0.5847,-0.877 l 0.4252,-0.1861 q 0.08,-0.026 0.186,-0.053 0.1064,-0.053 0.2392,-0.053 l 0.3987,0.053 q 0.7442,-0.3455 1.3023,-0.9568 0.5581,-0.6379 1.1428,-1.5149 l 0.2658,-0.3721 0.3455,0.2126 q 0.1329,0.08 0.3721,0.1595 0.2392,0.053 0.5049,0.1329 0.4784,0.1063 0.9037,0.2392 0.4252,0.1329 0.691,0.3986 0.1594,0.4253 0.186,0.6379 0.027,0.2126 0.08,0.4252 0.08,0.4518 0.1328,0.9036 0.08,0.4519 0.1064,1.01 0.1328,0.4518 0.2126,0.9036 0.1063,0.4253 0.186,0.8771 0.1329,0.6378 0.2658,1.2491 0.1329,0.5847 0.3455,1.1163 0.2126,0 0.2658,0.026 0.1329,-0.053 0.2657,-0.08 0.1595,-0.027 0.3455,-0.053 l 0.2924,-0.027 0.1063,0.2657 q 0.027,0.1329 0.2658,0.2658 0.3455,0.027 0.5049,0.1595 0.1595,0.1063 0.2924,0.2392 0.1063,0.1063 0.2126,0.1594 l 0.3987,0.1595 -0.2126,0.3987 q -0.2658,0.4784 -0.7708,0.9302 -0.4784,0.4252 -1.0897,0.7176 0.027,0.1594 0.027,0.3189 0.027,0.1329 0.08,0.2923 0.08,0.4518 0.1328,0.9302 0.053,0.4784 0,0.9834 z m -7.6809,-4.5979 q 0.7974,-0.053 1.4352,-0.1063 0.6644,-0.08 1.4618,-0.2392 -0.1861,-0.7973 -0.3987,-1.6478 -0.2126,-0.877 -0.4518,-1.7275 l -0.1595,0.2658 q -0.5315,0.5581 -1.0365,1.2491 -0.4784,0.691 -0.8239,1.3023 -0.1595,0.2392 -0.3189,0.4784 -0.1595,0.2392 -0.2924,0.4784 0.1595,-0.027 0.2924,-0.027 0.1594,0 0.2923,-0.027 z"
             id="path412" />
          <path
             d="m 1395.8229,-1349.2284 q -0.027,0.1329 -0.053,0.2392 -0.027,0.08 -0.053,0.1595 -0.027,0.08 -0.027,0.2126 0,0.1063 0,0.2924 -0.7973,1.4086 -2.0198,2.3653 -1.196,0.9568 -2.6578,1.701 -1.4352,0.7176 -3.0032,1.3289 -1.5681,0.5847 -3.0564,1.2757 -0.6379,-0.1595 -0.9834,-0.5316 -0.3189,-0.3721 -0.5049,-0.8505 -0.1595,-0.5049 -0.2392,-1.0896 -0.053,-0.6113 -0.1063,-1.2492 0.08,-0.2923 0.2126,-0.4784 0.1594,-0.2126 0.1594,-0.5847 0.2127,-0.691 0.4253,-1.3554 0.2126,-0.6644 0.2657,-1.3554 0.08,-0.2127 0.2924,-0.2924 0.1329,-1.2757 0,-2.578 -0.1063,-1.3289 -0.4252,-2.4717 0.027,-0.2658 0.053,-0.3721 0.053,-0.1329 0,-0.186 -0.027,-0.2126 0.1329,-0.2126 0.186,0 0.3721,0 0,-0.3987 -0.1595,-0.7974 -0.1329,-0.3986 -0.2658,-0.9036 0.1861,-0.3986 0.2392,-0.7707 0.053,-0.3987 0.2392,-0.691 1.4352,0.4518 2.7375,1.0896 1.3289,0.6379 2.6046,0.9302 0.9568,0.6911 1.9667,1.3821 1.0099,0.6644 1.8338,1.4883 0.8239,0.7973 1.3821,1.8338 0.5581,1.0366 0.6378,2.4717 z m -6.2988,1.4618 q 0.5581,-0.2126 1.0897,-0.4518 0.5581,-0.2392 1.0099,-0.5316 0.4784,-0.3189 0.8505,-0.7176 0.3721,-0.3986 0.6113,-0.9568 -0.1595,-0.3189 -0.4253,-0.5581 -0.2658,-0.2658 -0.5315,-0.4784 -0.2658,-0.2392 -0.5316,-0.4784 -0.2392,-0.2392 -0.3986,-0.5847 -0.3455,-0.053 -0.6113,-0.186 -0.2658,-0.1595 -0.5316,-0.2924 -0.2392,-0.1594 -0.5315,-0.2923 -0.2658,-0.1329 -0.6379,-0.1595 -0.5847,-0.2923 -1.0631,-0.4252 -0.4518,-0.1329 -0.691,-0.3455 -0.186,0 -0.2923,0.08 0.2658,1.01 0.3986,1.9136 0.1329,0.877 0.1329,1.7807 0.027,0.877 -0.08,1.8072 -0.1063,0.9302 -0.2924,2.0199 0.2658,-0.027 0.4784,-0.1063 0.2392,-0.1063 0.4519,-0.2126 0.2391,-0.1063 0.4783,-0.1861 0.2658,-0.1063 0.6113,-0.1328 0.08,-0.1595 0.2126,-0.2658 0.1595,-0.1063 0.2924,-0.2392 z"
             id="path409" />
          <path
             d="m 1415.0915,-1346.8364 q -0.6379,1.1428 -1.6744,1.7807 -1.0365,0.6112 -2.2856,1.0365 -1.2492,0.3986 -2.6312,0.7176 -1.3554,0.3189 -2.6311,0.8239 -0.3721,0 -0.6645,0.026 -0.2657,0.027 -0.5315,0.08 -0.2392,0.027 -0.4784,0.08 -0.2392,0.027 -0.5316,0.053 -0.1063,-0.027 -0.1328,0.053 -0.027,0.053 -0.08,0.1063 -0.4518,0.08 -0.8239,0.08 -0.3455,0 -0.5847,0 -0.3189,0 -0.6644,0.08 -0.3189,0.1063 -0.5847,0.08 -1.9933,-0.1063 -3.1361,-1.4086 -1.1163,-1.3288 -1.2492,-3.6676 0.027,-0.1329 -0.053,-0.1595 -0.053,-0.027 -0.1063,-0.08 0,-0.2658 0.053,-0.4519 0.08,-0.186 0.027,-0.4783 0.691,-1.4618 1.5681,-2.7109 0.877,-1.2757 2.0996,-2.2325 0.186,-0.1595 0.3189,-0.319 0.1329,-0.1594 0.2392,-0.3189 0.1329,-0.1595 0.2923,-0.2658 0.1595,-0.1328 0.3987,-0.186 0.5581,-0.6379 1.3289,-1.1694 0.7707,-0.5316 1.6212,-1.0099 0.8505,-0.505 1.6744,-0.9834 0.8504,-0.505 1.5414,-1.1163 0.2924,0.1329 0.4253,0.08 0.1329,-0.053 0.2923,0 0.1861,0.3986 0.505,0.5581 0.3455,0.1595 0.6644,0.3455 0.3455,0.1595 0.6379,0.3987 0.2923,0.2392 0.4518,0.6378 -0.1595,0 -0.1595,0.1329 0.027,0.1063 0.08,0.2392 0.053,0.1063 0.027,0.2392 0,0.1063 -0.1861,0.1063 0.027,0.1329 0.1595,0.1595 0.1594,0 0.1594,0.1329 0,0.1328 -0.08,0.2126 -0.053,0.08 0,0.2658 -0.5315,0.3455 -1.196,0.6644 -0.6378,0.3189 -1.3554,0.691 -0.691,0.3455 -1.4618,0.7707 -0.7441,0.3987 -1.4617,0.9302 -0.7176,0.5316 -1.4618,1.196 -0.7441,0.6379 -1.4352,1.3555 -0.691,0.7176 -1.3022,1.4883 -0.6113,0.7442 -1.0366,1.4883 0.053,0.1329 0.1063,0.2127 0.08,0.053 0.1329,0.186 0.8505,0.053 1.5681,0 0.7442,-0.08 1.4883,0.08 0.08,-0.053 0.1063,-0.1594 0.027,-0.1063 0.1329,-0.1595 1.5149,-0.1595 2.8172,-0.4784 1.3023,-0.3455 2.6578,-0.7176 -0.2127,-0.08 -0.3987,-0.1329 -0.1595,-0.08 -0.3189,-0.1329 -0.1329,-0.1328 0,-0.2126 0.1594,-0.1063 0.2657,-0.2126 -0.372,-0.2126 -0.6112,-0.5315 -0.2127,-0.319 -0.2658,-0.8505 0.1595,-0.1329 0.1595,-0.3189 0,-0.1861 -0.1595,-0.2924 -0.1063,-0.027 -0.1329,0 -0.027,0.027 -0.053,0.08 0,0.053 -0.026,0.1063 -0.027,0.027 -0.1329,-0.026 0.027,-0.2392 0.1063,-0.3987 0.1063,-0.1595 0.1595,-0.3721 l 1.8338,-1.2225 q 0.2923,0.2126 0.7176,0.4784 0.4252,0.2392 0.877,0.5049 0.4784,0.2392 0.9568,0.505 0.505,0.2392 0.9302,0.4784 0.3721,0.1595 0.6645,0.4252 0.2923,0.2658 0.5581,0.5582 0.2658,0.2657 0.5315,0.5315 0.2924,0.2658 0.6645,0.4518 -0.053,0.3455 0.026,0.5581 0.08,0.2127 0.053,0.5316 z"
             id="path406" />
          <path
             d="m 1428.832,-1357.0155 q 0.027,0.186 0,0.2923 0,0.08 -0.027,0.1595 0,0.08 0,0.186 0,0.08 0.053,0.2658 -0.5582,0.9036 -1.3023,1.2491 -0.7176,0.319 -1.5681,0.4784 -0.8505,0.1329 -1.7541,0.2924 -0.8771,0.1594 -1.7541,0.691 -0.3455,-0.1329 -0.6379,0 -0.2657,0.1329 -0.7973,0.08 -0.1594,0.1595 -0.3986,0.2392 -0.2392,0.053 -0.4784,0.1329 0.1063,0.2392 0.08,0.505 0,0.2392 0.08,0.3986 0.9302,0.08 2.0465,-0.027 1.1428,-0.1064 2.2325,-0.1329 0.027,0.1329 -0.027,0.186 -0.053,0.027 -0.027,0.1329 0.1861,0.1329 0.3721,0.3455 0.1861,0.186 0.3721,0.3721 0.186,0.186 0.3721,0.3189 0.2126,0.1063 0.4784,0.08 0.1063,0.2127 0.1329,0.4784 0.053,0.2392 -0.053,0.505 -0.4252,0.2924 -0.8505,0.6113 -0.4252,0.2923 -0.9036,0.5315 -0.4518,0.2392 -0.9834,0.3987 -0.5049,0.1329 -1.1428,0.1063 -0.1329,0 -0.2126,0 -0.053,0 -0.1595,-0.08 -0.2126,0.1329 -0.6113,0.08 -0.372,-0.053 -0.5847,0.08 -0.2923,-0.1329 -0.7175,-0.1063 -0.3987,0 -0.7176,-0.1063 -0.4253,0.5581 -0.7708,1.196 -0.3455,0.6378 -0.6113,1.3554 0.9037,0.1329 1.4884,0.1063 0.6113,-0.026 1.1428,-0.08 0.5316,-0.08 1.0897,-0.1329 0.5581,-0.08 1.4086,-0.053 0.5315,-0.2924 1.2491,-0.3721 0.7442,-0.1063 1.3555,-0.3189 0.2126,0.08 0.372,0.2923 0.1595,0.1861 0.2924,0.3721 0.1595,0.1595 0.3189,0.2923 0.1595,0.1329 0.3987,0.1064 0.1063,0.1063 0.1329,0.2657 0.053,0.1329 0.08,0.2658 0.027,0.1329 0.08,0.2392 0.08,0.08 0.2392,0.053 -0.3986,0.877 -0.9302,1.3554 -0.505,0.4518 -1.1694,0.691 -0.6644,0.2392 -1.4883,0.3721 -0.7973,0.1329 -1.7807,0.3189 -0.2392,0.053 -0.3987,-0.027 -0.1594,-0.053 -0.372,-0.053 -0.6113,0.1329 -1.4618,0.2392 -0.8505,0.1063 -1.7275,0.08 -0.8771,-0.027 -1.6744,-0.2392 -0.7973,-0.186 -1.3023,-0.691 -0.2126,-0.186 -0.2923,-0.4252 -0.053,-0.2658 -0.3455,-0.3987 -0.027,-0.3455 -0.1064,-0.7707 -0.08,-0.4253 -0.1594,-0.8771 -0.08,-0.4784 -0.1329,-0.9302 -0.027,-0.4518 0.053,-0.8239 0.08,-0.3986 0.3189,-0.7176 0.2658,-0.3189 0.186,-0.691 0.1329,-0.027 0.1595,-0.1329 0.027,-0.1329 0.2126,-0.1063 0.1595,-0.4784 0.3455,-0.9036 0.1861,-0.4253 0.3721,-0.8239 0.2126,-0.3987 0.3987,-0.7973 0.2126,-0.4253 0.3986,-0.9302 -0.3721,-0.3455 -0.5581,-0.7442 -0.1595,-0.4252 -0.2392,-0.8239 -0.08,-0.4252 -0.1329,-0.8505 -0.053,-0.4518 -0.186,-0.9036 0.2657,-0.3987 0.6378,-0.6379 0.3987,-0.2657 0.8505,-0.4252 0.4518,-0.1595 0.9834,-0.2658 0.5315,-0.1063 1.1162,-0.2392 1.0631,-0.3455 1.887,-0.5315 0.8505,-0.1861 1.6478,-0.2924 0.8239,-0.1329 1.7009,-0.2392 0.8771,-0.1063 1.9933,-0.3189 0.2392,0.2392 0.4519,0.2392 0.1063,-0.2392 0.2392,-0.1329 0.1594,0.08 0.1328,-0.1594 0.2658,0.4518 0.6645,0.7707 0.4252,0.2923 0.9302,0.505 z"
             id="path403" />
          <path
             d="m 1432.0744,-1345.2152 q 0.053,0.2126 0.08,0.3987 0.026,0.186 0.08,0.3986 -0.1063,0.2658 -0.1861,0.5316 -0.08,0.2392 -0.1594,0.4784 -0.08,0.186 -0.1063,0.2392 -0.027,0.053 -0.027,0.08 0,0.027 0,0.08 0.027,0.027 0.027,0.2126 l -0.1063,0.319 q -0.1329,0.186 -0.319,0.2923 -0.186,0.1063 -0.372,0.1861 -0.053,0.053 -0.1595,0.08 -0.1063,0.053 -0.1595,0.1063 l -0.08,0.3189 -0.3455,0.053 q -0.4518,0.1063 -0.7708,0.1063 h -0.3189 q -0.3189,-0.2924 -0.505,-0.4518 -0.186,-0.1595 -0.3986,-0.2924 -0.2658,-0.3721 -0.2924,-0.5315 -0.026,-0.1861 -0.08,-0.3455 -0.053,-0.3455 -0.1329,-0.4518 l -0.3721,-0.3721 0.319,-0.2392 -0.2924,-0.505 q 0.3189,-0.2392 0.4784,-0.3455 0.1595,-0.1063 0.2658,-0.2126 0.1063,-0.1329 0.2392,-0.3189 0.1329,-0.1861 0.4252,-0.6113 l 0.2392,-0.3455 0.3455,0.186 q 0.1063,0.08 0.4518,0.1595 0.3721,0.053 0.6379,0.1063 0.4518,0.1329 0.8505,0.2126 0.3986,0.053 0.6378,0.2658 z"
             id="path400" />
          <path
             d="m 1449.5357,-1354.8362 q -0.6644,0 -1.4351,0.1063 -0.7708,0.08 -1.515,0.1861 -0.5315,0.08 -1.0365,0.1328 -0.4784,0.053 -0.877,0.08 -0.1861,0.5847 -0.3721,1.0365 -0.186,0.4518 -0.3987,0.877 -0.2126,0.4519 -0.3986,0.9303 -0.1595,0.4518 -0.319,0.9833 -0.2657,0.4253 -0.4518,0.7973 -0.1594,0.3455 -0.2657,0.7974 -0.319,0.3986 -0.4784,0.8504 -0.1595,0.4253 -0.2392,0.7442 l -0.1063,0.3189 q -0.1595,0.1595 -0.1861,0.2658 -0.027,0.08 -0.1329,0.1595 -0.026,0.2923 -0.186,0.5847 -0.053,0.1328 -0.08,0.2657 -0.027,0.1063 -0.027,0.1595 0,0.2658 -0.1329,0.3455 0.027,0.1329 0,0.2924 -0.027,0.1328 -0.053,0.2657 -0.08,0.319 -0.053,0.505 0.08,0.1063 0.1329,0.186 0.08,0.08 0.1063,0.2127 0.1594,0.1063 0.2392,0.1328 0.1063,0.08 0.3189,0.1861 l 0.2392,0.2658 q 0.1329,0.7707 -0.2392,1.2225 -0.3987,0.505 -1.3554,0.505 h -0.319 q -0.1329,-0.1329 -0.1594,-0.2126 -0.2126,-0.08 -0.3455,-0.1329 -0.1329,-0.053 -0.2392,-0.2126 -0.3455,-0.1595 -0.5582,-0.2658 l -0.2392,-0.1329 q 0,-0.2923 0,-0.3189 -0.186,-0.2392 -0.2923,-0.5316 -0.08,-0.2923 -0.1329,-0.5847 -0.053,-0.2392 -0.1329,-0.4518 -0.053,-0.2126 -0.1594,-0.3721 -0.053,-1.5415 0.2923,-2.6045 0.3455,-1.0631 0.7176,-2.0465 0.2126,-0.5316 0.4252,-1.0631 0.2127,-0.5581 0.3721,-1.1428 l 0.2392,-0.2658 q 0.1861,-0.4252 0.2924,-0.691 0.1329,-0.2924 0.2657,-0.5847 0.08,-0.1861 0.1329,-0.3455 0.08,-0.1861 0.1329,-0.3189 -0.1595,0 -0.2923,0.026 -0.1329,0 -0.2658,0.027 -0.1595,0.027 -0.2924,0.053 -0.1328,0 -0.2657,0 -0.1861,0 -0.2658,-0.027 -0.2924,0.1329 -0.6379,0.1329 h -0.2657 q -0.08,0 -0.1595,0 -0.053,-0.027 -0.1063,-0.027 -0.2658,0 -0.4253,0.08 -0.3189,0 -0.6112,0 h -0.2658 q -0.053,0 -0.1329,0.027 -0.08,0 -0.1329,0 -0.186,0 -0.3986,-0.027 -0.2127,-0.053 -0.4519,-0.186 -0.3189,-0.4252 -0.4252,-0.4518 l -0.2392,-0.319 q -0.027,-0.1594 -0.08,-0.2923 -0.053,-0.1595 -0.1063,-0.3455 -0.1063,-0.2658 -0.2126,-0.5581 -0.08,-0.319 -0.08,-0.7442 0.027,-0.2126 0.1063,-0.3189 0.08,-0.1063 0.1329,-0.1861 l 0.08,-0.3986 0.3455,0.026 h 0.7441 q 0.8505,0 1.7275,-0.053 0.8771,-0.08 1.8073,-0.1595 0.5316,-0.053 1.0631,-0.1063 0.5581,-0.053 1.1428,-0.1063 0.1063,-0.2392 0.2126,-0.4518 l 0.2658,-0.1329 q 0.4784,-0.027 0.6645,0.1329 0.2126,0.1329 0.3455,0.2658 0.5847,-0.053 1.1694,-0.1063 0.6112,-0.08 1.2225,-0.1861 0.9037,-0.1329 1.8073,-0.2392 0.9302,-0.1063 1.7807,-0.1063 0.372,0 0.7176,0.027 0.3455,0.027 0.6378,0.08 l 0.2658,0.1861 q 0.08,0.1594 0.2126,0.2923 0.1595,0.1329 0.3189,0.2658 0.319,0.2923 0.6379,0.691 0.3189,0.3987 0.2392,1.1694 -0.2126,0.3189 -0.3189,0.3721 l -0.2392,0.3189 -0.2658,-0.027 q -0.1595,0 -0.2924,0.053 -0.1329,0.027 -0.2657,0.08 -0.1064,0.053 -0.2127,0.1063 -0.1063,0.027 -0.2392,0.053 -0.2392,0 -0.3986,0 -0.1329,-0.027 -0.2924,-0.027 z"
             id="path397" />
          <path
             d="m 1462.2929,-1357.0155 q 0.027,0.186 0,0.2923 0,0.08 -0.027,0.1595 0,0.08 0,0.186 0,0.08 0.053,0.2658 -0.5581,0.9036 -1.3023,1.2491 -0.7175,0.319 -1.568,0.4784 -0.8505,0.1329 -1.7541,0.2924 -0.8771,0.1594 -1.7541,0.691 -0.3455,-0.1329 -0.6379,0 -0.2658,0.1329 -0.7973,0.08 -0.1595,0.1595 -0.3987,0.2392 -0.2392,0.053 -0.4784,0.1329 0.1064,0.2392 0.08,0.505 0,0.2392 0.08,0.3986 0.9302,0.08 2.0465,-0.027 1.1428,-0.1064 2.2325,-0.1329 0.026,0.1329 -0.027,0.186 -0.053,0.027 -0.027,0.1329 0.186,0.1329 0.3721,0.3455 0.186,0.186 0.3721,0.3721 0.186,0.186 0.3721,0.3189 0.2126,0.1063 0.4783,0.08 0.1064,0.2127 0.1329,0.4784 0.053,0.2392 -0.053,0.505 -0.4253,0.2924 -0.8505,0.6113 -0.4252,0.2923 -0.9036,0.5315 -0.4518,0.2392 -0.9834,0.3987 -0.505,0.1329 -1.1428,0.1063 -0.1329,0 -0.2126,0 -0.053,0 -0.1595,-0.08 -0.2126,0.1329 -0.6113,0.08 -0.3721,-0.053 -0.5847,0.08 -0.2923,-0.1329 -0.7176,-0.1063 -0.3986,0 -0.7176,-0.1063 -0.4252,0.5581 -0.7707,1.196 -0.3455,0.6378 -0.6113,1.3554 0.9037,0.1329 1.4884,0.1063 0.6112,-0.026 1.1428,-0.08 0.5315,-0.08 1.0897,-0.1329 0.5581,-0.08 1.4086,-0.053 0.5315,-0.2924 1.2491,-0.3721 0.7442,-0.1063 1.3554,-0.3189 0.2127,0.08 0.3721,0.2923 0.1595,0.1861 0.2924,0.3721 0.1594,0.1595 0.3189,0.2923 0.1595,0.1329 0.3987,0.1064 0.1063,0.1063 0.1328,0.2657 0.053,0.1329 0.08,0.2658 0.026,0.1329 0.08,0.2392 0.08,0.08 0.2392,0.053 -0.3987,0.877 -0.9302,1.3554 -0.505,0.4518 -1.1694,0.691 -0.6644,0.2392 -1.4883,0.3721 -0.7974,0.1329 -1.7807,0.3189 -0.2392,0.053 -0.3987,-0.027 -0.1594,-0.053 -0.3721,-0.053 -0.6112,0.1329 -1.4617,0.2392 -0.8505,0.1063 -1.7275,0.08 -0.8771,-0.027 -1.6744,-0.2392 -0.7973,-0.186 -1.3023,-0.691 -0.2126,-0.186 -0.2924,-0.4252 -0.053,-0.2658 -0.3455,-0.3987 -0.026,-0.3455 -0.1063,-0.7707 -0.08,-0.4253 -0.1594,-0.8771 -0.08,-0.4784 -0.1329,-0.9302 -0.027,-0.4518 0.053,-0.8239 0.08,-0.3986 0.319,-0.7176 0.2657,-0.3189 0.186,-0.691 0.1329,-0.027 0.1595,-0.1329 0.027,-0.1329 0.2126,-0.1063 0.1594,-0.4784 0.3455,-0.9036 0.186,-0.4253 0.3721,-0.8239 0.2126,-0.3987 0.3986,-0.7973 0.2126,-0.4253 0.3987,-0.9302 -0.3721,-0.3455 -0.5581,-0.7442 -0.1595,-0.4252 -0.2392,-0.8239 -0.08,-0.4252 -0.1329,-0.8505 -0.053,-0.4518 -0.1861,-0.9036 0.2658,-0.3987 0.6379,-0.6379 0.3987,-0.2657 0.8505,-0.4252 0.4518,-0.1595 0.9833,-0.2658 0.5316,-0.1063 1.1163,-0.2392 1.0631,-0.3455 1.887,-0.5315 0.8504,-0.1861 1.6478,-0.2924 0.8239,-0.1329 1.7009,-0.2392 0.8771,-0.1063 1.9933,-0.3189 0.2392,0.2392 0.4518,0.2392 0.1063,-0.2392 0.2392,-0.1329 0.1595,0.08 0.1329,-0.1594 0.2658,0.4518 0.6645,0.7707 0.4252,0.2923 0.9302,0.505 z"
             id="path394" />
          <path
             d="m 1475.7144,-1344.285 q -0.1594,0.4518 -0.4784,0.9302 -0.2923,0.4518 -0.7176,0.8239 -0.3986,0.3455 -0.9036,0.5847 -0.505,0.2392 -1.0631,0.2658 -0.3455,-0.08 -0.4784,-0.186 -0.1063,-0.08 -0.2392,-0.1595 -0.08,-0.053 -0.1594,-0.08 -0.053,-0.053 -0.1063,-0.08 l -0.319,-0.1329 0.1063,-0.3455 q 0.053,-0.2126 -0.027,-0.3189 -0.08,-0.1329 -0.319,-0.3455 -0.08,-0.08 -0.1594,-0.1595 -0.08,-0.08 -0.1329,-0.1594 l -0.4518,-0.505 0.7176,-0.186 q 0.6644,-0.1861 0.877,-0.4784 0.2392,-0.2924 0.186,-0.9834 -0.5315,-0.1063 -0.9036,-0.027 -0.3455,0.08 -0.7176,0.1861 -0.4784,0.1329 -0.9833,0.2392 -0.4784,0.08 -1.0631,0.08 -0.2126,0 -0.3987,0 -0.186,-0.027 -0.3986,-0.053 l -0.2658,-0.053 q -0.053,-0.2924 -0.1063,-0.3189 -0.053,-0.053 -0.1063,-0.1064 -0.1329,-0.1328 -0.2924,-0.3455 -0.1329,-0.2392 -0.053,-0.5847 -0.1329,-0.2392 -0.1595,-0.4783 -0.1595,0.3189 -0.2392,0.6644 l -0.1063,0.2658 -0.2658,0.053 q -0.053,0.027 -0.08,0.1329 -0.027,0.08 -0.027,0.1329 l -0.1329,0.4518 q -0.053,0.053 -0.1063,0.1063 -0.053,0.027 -0.1063,0.08 -0.053,0.2392 -0.1329,0.4784 -0.08,0.2392 -0.1595,0.4518 -0.1328,0.3456 -0.2391,0.6911 -0.08,0.3189 -0.053,0.6378 l -0.1063,0.2924 q -0.1329,0.1594 -0.2924,0.2657 -0.1594,0.08 -0.3189,0.1595 -0.053,0.053 -0.1595,0.1063 -0.08,0.027 -0.1328,0.053 l -0.08,0.2923 -0.3189,0.053 q -0.2924,0.053 -0.4252,0.08 -0.1063,0.027 -0.2658,0.027 l -0.2658,-0.027 q -0.2923,-0.2392 -0.4518,-0.3721 -0.1595,-0.1594 -0.3721,-0.2923 -0.2392,-0.319 -0.2658,-0.4784 -0.026,-0.1595 -0.053,-0.2924 -0.053,-0.1594 -0.053,-0.2657 -0.027,-0.1064 -0.08,-0.1595 l -0.3455,-0.3189 0.2923,-0.2392 0.027,-0.4518 q 0.5316,-1.3555 1.1163,-2.6046 0.6113,-1.2492 1.2491,-2.5515 0.2126,-0.4252 0.3987,-0.8504 0.2126,-0.4253 0.4252,-0.8505 -0.027,-0.08 -0.027,-0.186 0,-0.1064 0.053,-0.2392 0.2923,-0.4519 0.4784,-0.7974 0.186,-0.372 0.3721,-0.7441 0.2126,-0.4518 0.4252,-0.8771 0.2392,-0.4252 0.5847,-0.877 l 0.4252,-0.1861 q 0.08,-0.026 0.1861,-0.053 0.1063,-0.053 0.2392,-0.053 l 0.3986,0.053 q 0.7442,-0.3455 1.3023,-0.9568 0.5581,-0.6379 1.1428,-1.5149 l 0.2658,-0.3721 0.3455,0.2126 q 0.1329,0.08 0.3721,0.1595 0.2392,0.053 0.505,0.1329 0.4784,0.1063 0.9036,0.2392 0.4252,0.1329 0.691,0.3986 0.1595,0.4253 0.1861,0.6379 0.026,0.2126 0.08,0.4252 0.08,0.4518 0.1329,0.9036 0.08,0.4519 0.1063,1.01 0.1329,0.4518 0.2126,0.9036 0.1063,0.4253 0.186,0.8771 0.1329,0.6378 0.2658,1.2491 0.1329,0.5847 0.3455,1.1163 0.2126,0 0.2658,0.026 0.1329,-0.053 0.2658,-0.08 0.1594,-0.027 0.3455,-0.053 l 0.2923,-0.027 0.1063,0.2657 q 0.027,0.1329 0.2658,0.2658 0.3455,0.027 0.505,0.1595 0.1594,0.1063 0.2923,0.2392 0.1063,0.1063 0.2127,0.1594 l 0.3986,0.1595 -0.2126,0.3987 q -0.2658,0.4784 -0.7707,0.9302 -0.4784,0.4252 -1.0897,0.7176 0.027,0.1594 0.027,0.3189 0.026,0.1329 0.08,0.2923 0.08,0.4518 0.1329,0.9302 0.053,0.4784 0,0.9834 z m -7.6808,-4.5979 q 0.7973,-0.053 1.4351,-0.1063 0.6645,-0.08 1.4618,-0.2392 -0.186,-0.7973 -0.3987,-1.6478 -0.2126,-0.877 -0.4518,-1.7275 l -0.1594,0.2658 q -0.5316,0.5581 -1.0366,1.2491 -0.4783,0.691 -0.8239,1.3023 -0.1594,0.2392 -0.3189,0.4784 -0.1594,0.2392 -0.2923,0.4784 0.1594,-0.027 0.2923,-0.027 0.1595,0 0.2924,-0.027 z"
             id="path391" />
          <path
             d="m 1495.86,-1342.5309 q -0.2657,0.1329 -0.5049,0.2392 -0.2126,0.1063 -0.505,0.1063 -1.0365,-0.7707 -1.0897,-2.6843 -0.026,-1.9136 0.8239,-4.8636 0.1329,-0.08 0.1329,-0.319 l -0.2392,-0.2657 q -0.1063,0 -0.2126,0.026 -0.08,0.027 -0.1329,0.1861 -0.691,0.5049 -1.5149,1.0631 -0.8239,0.5315 -1.7275,1.0099 -0.8771,0.4518 -1.8073,0.7442 -0.9036,0.2923 -1.7807,0.2923 -2.2325,0 -3.3487,-2.2591 l -0.2126,-0.3986 -0.2126,0.3455 q -0.08,0.1063 -0.2392,0.4518 -0.1595,0.3189 -0.319,0.7442 -0.1594,0.4252 -0.2923,0.877 -0.1063,0.4253 -0.08,0.7442 -0.2391,0.2392 -0.5049,0.5581 -0.2658,0.3189 -0.3987,0.7176 -0.053,0.2126 0.053,0.3987 -0.053,0.2392 -0.2392,0.372 -0.1063,0.1329 -0.2392,0.2658 -0.1063,0.1063 -0.1861,0.2392 -0.053,0.1329 -0.08,0.2658 0,0.1329 -0.027,0.2658 0,0.186 -0.053,0.3455 -0.4518,0.9302 -0.7176,1.196 -0.2658,0.2923 -0.7176,0.2923 -0.2126,0 -0.691,-0.08 -0.3455,-0.3721 -0.6379,-1.01 -0.2657,-0.6644 -0.4252,-1.4086 -0.1329,-0.7441 -0.1329,-1.4883 0.027,-0.7707 0.2658,-1.3289 0,-0.026 0.2126,-0.5315 0.2126,-0.505 0.5315,-1.3023 0.3456,-0.7973 0.7708,-1.7541 0.4252,-0.9834 0.8505,-1.887 0.4252,-0.9302 0.7973,-1.7009 0.3986,-0.7708 0.6644,-1.1695 0.2126,-0.3189 0.3721,-0.5847 0.186,-0.2923 0.3455,-0.5581 0.4784,-0.8239 0.9036,-1.3554 0.4519,-0.5581 1.3023,-0.8771 0.5847,0.2392 0.8505,0.5581 l 0.053,0.2924 q 0.1063,0.2658 0.3189,0.2658 0.2923,0.08 0.4784,0.1594 0.2126,0.053 0.4518,0.1063 0.186,0.2127 0.3455,0.505 0.2126,0.3189 0.3987,0.6379 0.2126,0.2923 0.3189,0.6113 0.1329,0.2923 0.1329,0.6112 0.026,0.319 -0.1063,0.6645 l 0.026,0.2657 q 0.1329,0.2392 0.053,0.6645 -0.027,0.186 -0.027,0.3986 0,0.1861 0.053,0.4253 0.4784,0.3721 0.8504,0.3721 0.4253,0 0.7708,-0.1861 0.3721,-0.2126 0.691,-0.4252 0.2126,-0.1595 0.4252,-0.2658 0.2127,-0.1329 0.4253,-0.1595 0.4784,-0.4518 0.8505,-0.7973 0.3986,-0.3455 0.8238,-0.691 0.7974,-0.6379 1.5415,-1.382 0.7442,-0.7442 1.196,-1.8604 0.2658,-0.1595 0.5581,-0.1595 0.2924,0 0.6113,0.1329 0.3189,0.1329 0.6113,0.2658 0.08,0.053 0.1329,0.08 0.08,0.027 0.1329,0.053 0,0.2657 0.2126,0.4518 0.1063,0.08 0.1329,0.1063 0.027,0.027 0.08,0.053 0.3987,0.2126 0.505,0.4253 0.186,0.6112 0.6644,0.9302 -0.053,0.2657 0,0.5049 0.08,0.2127 0.1861,0.4519 0.026,0.08 0.053,0.1594 0.027,0.08 0.08,0.1861 l -0.5049,-0.053 0.08,0.505 q 0.053,0.3721 -0.08,0.8239 -0.1063,0.4518 -0.2658,0.7176 0.027,0.691 0.027,1.0896 0.027,0.3721 -0.027,0.7176 -0.053,0.319 -0.1595,0.6113 -0.08,0.2924 -0.2392,0.6379 0.1063,1.7009 -0.3986,3.1095 -0.4784,1.382 -1.01,2.6046 -0.053,0.1329 -0.1328,0.2658 -0.053,0.1328 -0.1064,0.2657 -0.2392,0.08 -0.4252,0.1861 -0.186,0.08 -0.3987,0.186 z"
             id="path388" />
        </g>
      </g>
      <flowRoot
         xml:space="preserve"
         id="flowRoot43927"
         style="font-style:normal;font-variant:normal;font-weight:bold;font-stretch:normal;font-size:10.6667px;line-height:1.25;font-family:'Permanent marker';-inkscape-font-specification:'Permanent marker Bold';letter-spacing:0px;word-spacing:0px;fill:#000000;fill-opacity:1;stroke:none"
         transform="translate(4.2250813,2.394909)"><flowRegion
           id="flowRegion43929"
           style="font-style:normal;font-variant:normal;font-weight:bold;font-stretch:normal;font-family:'Permanent marker';-inkscape-font-specification:'Permanent marker Bold'"><rect
             id="rect43931"
             width="450.71429"
             height="107.85714"
             x="1471.4286"
             y="-1364.6232"
             style="font-style:normal;font-variant:normal;font-weight:bold;font-stretch:normal;font-family:'Permanent marker';-inkscape-font-specification:'Permanent marker Bold'" /></flowRegion><flowPara
           id="flowPara43933" /></flowRoot>
    </g>
  </g>
</svg>
