<?xml version="1.0" encoding="UTF-8" standalone="no"?>
<!-- Created with Inkscape (http://www.inkscape.org/) -->

<svg
   width="84.268753mm"
   height="11.110655mm"
   viewBox="0 0 84.268753 11.110655"
   version="1.1"
   id="svg5"
   xmlns="http://www.w3.org/2000/svg"
   xmlns:svg="http://www.w3.org/2000/svg">
  <defs
     id="defs2" />
  <g
     id="layer1"
     transform="translate(-10.8363,-32.099528)">
    <g
       aria-label="BADGE.TEAM"
       id="text3707"
       style="font-size:10.5833px;line-height:1.25;font-family:Fairlight;-inkscape-font-specification:Fairlight;letter-spacing:0px;word-spacing:0px;fill:#ffffff;stroke-width:0.264583">
      <path
         d="m 19.946954,40.19216 h -1.018022 v 1.018022 H 12.8363 v -5.079777 h 2.030877 v 1.018023 h 2.030877 v -1.018023 h 1.018023 V 35.112383 H 12.8363 v -1.012855 h 6.092632 v 1.012855 h 1.018022 v 2.036045 h -1.018022 v 1.012854 h 1.018022 z m -2.030877,-1.012855 v -1.018023 h -3.0489 v 2.030878 h 2.030877 v -1.012855 z"
         id="path4444" />
      <path
         d="m 28.075632,41.210182 h -2.030878 v -3.0489 h -3.048899 v 2.030878 h 1.012854 v 1.018022 H 21.977832 V 40.19216 h -1.012855 v -4.061755 h 1.012855 v -1.018022 h 1.018023 v -1.012855 h 5.079777 v 1.012855 h -4.066923 v 1.018022 h -1.012854 v 1.018023 h 3.048899 v -1.018023 h 2.030878 z"
         id="path4441" />
      <path
         d="m 36.204309,38.161282 h -1.018022 v 2.030878 h -2.030878 v 1.018022 h -4.061754 v -5.079777 h 2.030877 v 4.061755 h 1.012855 v -1.012855 h 1.018022 v -1.018023 h 1.018023 v -3.048899 h -5.079777 v -1.012855 h 6.092632 v 1.012855 h 1.018022 z"
         id="path4438" />
      <path
         d="m 44.332986,40.19216 h -1.018022 v 1.018022 H 38.235187 V 40.19216 h -1.012855 v -5.079777 h 1.012855 v -1.012855 h 5.079777 v 1.012855 h 1.018022 v 1.018022 h -2.030877 v -1.018022 h -2.036045 v 1.018022 h -1.012855 v 4.061755 h 2.030878 v -1.012855 h 1.018022 v -1.018023 h -1.018022 v -1.012854 h 3.048899 z"
         id="path4435" />
      <path
         d="m 52.461664,35.112383 h -7.110655 v -1.012855 h 7.110655 z m 0,5.079777 h -1.018023 v 1.018022 H 46.363864 V 40.19216 h -1.012855 v -4.061755 h 2.030878 v 1.018023 h 3.048899 v 1.012854 h -3.048899 v 1.018023 h 1.012854 v 1.012855 h 2.036045 v -1.012855 h 2.030878 z"
         id="path4432" />
      <path
         d="m 57.541441,41.210182 h -2.030877 v -2.030877 h 2.030877 z"
         id="path4429" />
      <path
         d="m 68.719018,35.112383 h -7.110654 v -1.012855 h 7.110654 z m -1.018022,6.097799 h -3.0489 V 40.19216 h -1.012855 v -4.061755 h 3.0489 v 4.061755 h 1.012855 z"
         id="path4426" />
      <path
         d="m 76.847696,35.112383 h -7.110655 v -1.012855 h 7.110655 z m 0,5.079777 h -1.018023 v 1.018022 H 70.749896 V 40.19216 h -1.012855 v -4.061755 h 2.030878 v 1.018023 h 3.0489 v 1.012854 h -3.0489 v 1.018023 h 1.012855 v 1.012855 h 2.036045 v -1.012855 h 2.030877 z"
         id="path4423" />
      <path
         d="m 84.976373,41.210182 h -2.030877 v -3.0489 h -3.0489 v 2.030878 h 1.012855 v 1.018022 H 78.878574 V 40.19216 h -1.012855 v -4.061755 h 1.012855 v -1.018022 h 1.018022 v -1.012855 h 5.079777 v 1.012855 h -4.066922 v 1.018022 h -1.012855 v 1.018023 h 3.0489 v -1.018023 h 2.030877 z"
         id="path4420" />
      <path
         d="m 93.105051,35.112383 h -2.030878 v -1.012855 h 2.030878 z m 0,6.097799 h -2.030878 v -4.061754 h -1.018022 v 2.030877 h -1.018023 v -2.030877 h -1.012855 v 3.043732 h 1.012855 v 1.018022 H 87.007251 V 40.19216 h -1.012855 v -4.061755 h 1.012855 v -1.018022 h 1.018022 v -1.012855 h 1.012855 v 1.012855 h 1.018023 v 1.018022 h 3.0489 z"
         id="path4417" />
    </g>
  </g>
</svg>
